<mxfile host="app.diagrams.net" modified="2023-12-14T10:17:39.942Z" agent="Mozilla/5.0 (Windows NT 10.0; Win64; x64) AppleWebKit/537.36 (KHTML, like Gecko) Chrome/120.0.0.0 Safari/537.36" etag="3x3JO-K490C0NRwc1f36" version="22.1.8" type="device">
  <diagram name="Page-1" id="2YBvvXClWsGukQMizWep">
    <mxGraphModel dx="440" dy="522" grid="1" gridSize="10" guides="1" tooltips="1" connect="1" arrows="1" fold="1" page="1" pageScale="1" pageWidth="850" pageHeight="1100" math="0" shadow="0">
      <root>
        <mxCell id="0" />
        <mxCell id="1" parent="0" />
        <mxCell id="CuUMLNrEYhEkPWE522iD-236" value="" style="edgeStyle=orthogonalEdgeStyle;rounded=0;orthogonalLoop=1;jettySize=auto;html=1;" parent="1" edge="1">
          <mxGeometry relative="1" as="geometry">
            <mxPoint x="2599.9996301761475" y="2890.076923076923" as="targetPoint" />
          </mxGeometry>
        </mxCell>
        <mxCell id="CuUMLNrEYhEkPWE522iD-237" value="" style="edgeStyle=orthogonalEdgeStyle;rounded=0;orthogonalLoop=1;jettySize=auto;html=1;" parent="1" edge="1">
          <mxGeometry relative="1" as="geometry">
            <mxPoint x="2550" y="2870" as="targetPoint" />
          </mxGeometry>
        </mxCell>
        <mxCell id="CuUMLNrEYhEkPWE522iD-238" style="edgeStyle=orthogonalEdgeStyle;rounded=0;orthogonalLoop=1;jettySize=auto;html=1;exitX=0.5;exitY=0;exitDx=0;exitDy=0;entryX=0.5;entryY=1;entryDx=0;entryDy=0;" parent="1" edge="1">
          <mxGeometry relative="1" as="geometry">
            <mxPoint x="545" y="1910" as="targetPoint" />
          </mxGeometry>
        </mxCell>
        <mxCell id="CuUMLNrEYhEkPWE522iD-239" value="" style="edgeStyle=orthogonalEdgeStyle;rounded=0;orthogonalLoop=1;jettySize=auto;html=1;" parent="1" edge="1">
          <mxGeometry relative="1" as="geometry">
            <mxPoint x="545" y="1870" as="targetPoint" />
          </mxGeometry>
        </mxCell>
        <mxCell id="CuUMLNrEYhEkPWE522iD-240" style="edgeStyle=orthogonalEdgeStyle;rounded=0;orthogonalLoop=1;jettySize=auto;html=1;entryX=0.5;entryY=1;entryDx=0;entryDy=0;" parent="1" edge="1">
          <mxGeometry relative="1" as="geometry">
            <mxPoint x="892.5" y="1940" as="sourcePoint" />
          </mxGeometry>
        </mxCell>
        <mxCell id="CuUMLNrEYhEkPWE522iD-243" value="" style="edgeStyle=orthogonalEdgeStyle;rounded=0;orthogonalLoop=1;jettySize=auto;html=1;" parent="1" edge="1">
          <mxGeometry relative="1" as="geometry">
            <mxPoint x="595" y="1890" as="targetPoint" />
          </mxGeometry>
        </mxCell>
        <mxCell id="CuUMLNrEYhEkPWE522iD-245" value="" style="edgeStyle=orthogonalEdgeStyle;rounded=0;orthogonalLoop=1;jettySize=auto;html=1;" parent="1" edge="1">
          <mxGeometry relative="1" as="geometry">
            <mxPoint x="1320" y="3030" as="sourcePoint" />
          </mxGeometry>
        </mxCell>
        <mxCell id="yjwkkPw8K8LZouZbog4r-1" value="Supplements" style="rounded=0;whiteSpace=wrap;html=1;" parent="1" vertex="1">
          <mxGeometry x="1112.8899999999999" y="971.5" width="127.5" height="60" as="geometry" />
        </mxCell>
        <mxCell id="yjwkkPw8K8LZouZbog4r-2" value="&lt;font style=&quot;font-size: 18px;&quot;&gt;Customer&lt;/font&gt;" style="rounded=0;whiteSpace=wrap;html=1;strokeColor=#000000;" parent="1" vertex="1">
          <mxGeometry x="1181" y="641.5" width="100" height="50" as="geometry" />
        </mxCell>
        <mxCell id="yjwkkPw8K8LZouZbog4r-256" style="edgeStyle=orthogonalEdgeStyle;orthogonalLoop=1;jettySize=auto;html=1;exitX=0;exitY=0.75;exitDx=0;exitDy=0;entryX=1;entryY=0.5;entryDx=0;entryDy=0;endArrow=none;endFill=0;rounded=0;" parent="1" source="yjwkkPw8K8LZouZbog4r-3" target="yjwkkPw8K8LZouZbog4r-22" edge="1">
          <mxGeometry relative="1" as="geometry">
            <Array as="points">
              <mxPoint x="2326" y="759" />
              <mxPoint x="2146" y="759" />
              <mxPoint x="2146" y="1099" />
            </Array>
          </mxGeometry>
        </mxCell>
        <mxCell id="yjwkkPw8K8LZouZbog4r-288" style="orthogonalLoop=1;jettySize=auto;html=1;exitX=0;exitY=0.5;exitDx=0;exitDy=0;entryX=1;entryY=0.5;entryDx=0;entryDy=0;endArrow=none;endFill=0;" parent="1" source="yjwkkPw8K8LZouZbog4r-3" target="yjwkkPw8K8LZouZbog4r-7" edge="1">
          <mxGeometry relative="1" as="geometry" />
        </mxCell>
        <mxCell id="yjwkkPw8K8LZouZbog4r-3" value="&lt;font style=&quot;font-size: 18px;&quot;&gt;Trainer&lt;/font&gt;" style="rounded=0;whiteSpace=wrap;html=1;" parent="1" vertex="1">
          <mxGeometry x="2305" y="639" width="100" height="50" as="geometry" />
        </mxCell>
        <mxCell id="yjwkkPw8K8LZouZbog4r-254" value="" style="edgeStyle=orthogonalEdgeStyle;rounded=0;orthogonalLoop=1;jettySize=auto;html=1;endArrow=none;endFill=0;" parent="1" source="yjwkkPw8K8LZouZbog4r-4" target="yjwkkPw8K8LZouZbog4r-22" edge="1">
          <mxGeometry relative="1" as="geometry" />
        </mxCell>
        <mxCell id="yjwkkPw8K8LZouZbog4r-4" value="&lt;font style=&quot;font-size: 18px;&quot;&gt;Workout_program&lt;br&gt;&lt;/font&gt;" style="rounded=0;whiteSpace=wrap;html=1;" parent="1" vertex="1">
          <mxGeometry x="1664.14" y="1179" width="175" height="50" as="geometry" />
        </mxCell>
        <mxCell id="yjwkkPw8K8LZouZbog4r-7" value="&lt;span style=&quot;font-size: 18px;&quot;&gt;&lt;b&gt;Feedback&lt;/b&gt;&lt;/span&gt;" style="rhombus;whiteSpace=wrap;html=1;" parent="1" vertex="1">
          <mxGeometry x="1730" y="396" width="110" height="80" as="geometry" />
        </mxCell>
        <mxCell id="yjwkkPw8K8LZouZbog4r-243" style="edgeStyle=orthogonalEdgeStyle;orthogonalLoop=1;jettySize=auto;html=1;exitX=1;exitY=0.5;exitDx=0;exitDy=0;endArrow=none;endFill=0;rounded=0;entryX=0;entryY=0.75;entryDx=0;entryDy=0;" parent="1" source="yjwkkPw8K8LZouZbog4r-12" target="yjwkkPw8K8LZouZbog4r-3" edge="1">
          <mxGeometry relative="1" as="geometry">
            <mxPoint x="2296" y="679" as="targetPoint" />
            <Array as="points">
              <mxPoint x="2046" y="894" />
              <mxPoint x="2046" y="679" />
              <mxPoint x="2270" y="679" />
              <mxPoint x="2270" y="677" />
            </Array>
          </mxGeometry>
        </mxCell>
        <mxCell id="yjwkkPw8K8LZouZbog4r-12" value="&lt;font style=&quot;font-size: 14px;&quot;&gt;&lt;b&gt;Makes&lt;/b&gt;&lt;/font&gt;" style="rhombus;whiteSpace=wrap;html=1;" parent="1" vertex="1">
          <mxGeometry x="1717.8799999999999" y="854" width="80" height="80" as="geometry" />
        </mxCell>
        <mxCell id="yjwkkPw8K8LZouZbog4r-22" value="&lt;b&gt;&lt;font style=&quot;font-size: 14px;&quot;&gt;Follows&lt;/font&gt;&lt;/b&gt;" style="rhombus;whiteSpace=wrap;html=1;" parent="1" vertex="1">
          <mxGeometry x="1711.64" y="1059" width="80" height="80" as="geometry" />
        </mxCell>
        <mxCell id="yjwkkPw8K8LZouZbog4r-25" value="&lt;b&gt;&lt;font style=&quot;font-size: 14px;&quot;&gt;Takes&lt;/font&gt;&lt;/b&gt;" style="rhombus;whiteSpace=wrap;html=1;" parent="1" vertex="1">
          <mxGeometry x="1184.78" y="774" width="80" height="80" as="geometry" />
        </mxCell>
        <mxCell id="yjwkkPw8K8LZouZbog4r-31" value="" style="endArrow=none;html=1;rounded=0;entryX=0;entryY=1;entryDx=0;entryDy=0;exitX=0.75;exitY=0;exitDx=0;exitDy=0;" parent="1" source="yjwkkPw8K8LZouZbog4r-3" target="yjwkkPw8K8LZouZbog4r-115" edge="1">
          <mxGeometry width="50" height="50" relative="1" as="geometry">
            <mxPoint x="2035" y="709" as="sourcePoint" />
            <mxPoint x="2451.10912703474" y="544.1776695296635" as="targetPoint" />
          </mxGeometry>
        </mxCell>
        <mxCell id="yjwkkPw8K8LZouZbog4r-32" value="" style="endArrow=none;html=1;rounded=0;exitX=1;exitY=0.25;exitDx=0;exitDy=0;entryX=0;entryY=1;entryDx=0;entryDy=0;" parent="1" source="yjwkkPw8K8LZouZbog4r-3" target="yjwkkPw8K8LZouZbog4r-114" edge="1">
          <mxGeometry width="50" height="50" relative="1" as="geometry">
            <mxPoint x="2045" y="726.5" as="sourcePoint" />
            <mxPoint x="2475.0000000000064" y="591.5000000000001" as="targetPoint" />
          </mxGeometry>
        </mxCell>
        <mxCell id="yjwkkPw8K8LZouZbog4r-34" value="&lt;u&gt;&lt;b&gt;Workout ID&lt;/b&gt;&lt;/u&gt;" style="ellipse;whiteSpace=wrap;html=1;" parent="1" vertex="1">
          <mxGeometry x="1557.88" y="1239" width="73.13" height="30" as="geometry" />
        </mxCell>
        <mxCell id="yjwkkPw8K8LZouZbog4r-253" style="edgeStyle=orthogonalEdgeStyle;rounded=0;orthogonalLoop=1;jettySize=auto;html=1;entryX=1;entryY=0.75;entryDx=0;entryDy=0;" parent="1" source="yjwkkPw8K8LZouZbog4r-37" target="yjwkkPw8K8LZouZbog4r-4" edge="1">
          <mxGeometry relative="1" as="geometry" />
        </mxCell>
        <mxCell id="yjwkkPw8K8LZouZbog4r-37" value="Plan note" style="ellipse;whiteSpace=wrap;html=1;" parent="1" vertex="1">
          <mxGeometry x="1870.38" y="1255.25" width="65" height="25" as="geometry" />
        </mxCell>
        <mxCell id="yjwkkPw8K8LZouZbog4r-39" value="&lt;b&gt;&lt;u&gt;Supplements ID&lt;/u&gt;&lt;/b&gt;" style="ellipse;whiteSpace=wrap;html=1;" parent="1" vertex="1">
          <mxGeometry x="1257.8699999999997" y="986.5" width="110" height="40" as="geometry" />
        </mxCell>
        <mxCell id="yjwkkPw8K8LZouZbog4r-43" value="" style="endArrow=none;html=1;rounded=0;entryX=0;entryY=0.5;entryDx=0;entryDy=0;exitX=1;exitY=0.5;exitDx=0;exitDy=0;" parent="1" source="yjwkkPw8K8LZouZbog4r-1" target="yjwkkPw8K8LZouZbog4r-39" edge="1">
          <mxGeometry width="50" height="50" relative="1" as="geometry">
            <mxPoint x="1371.59" y="921.5" as="sourcePoint" />
            <mxPoint x="1421.59" y="871.5" as="targetPoint" />
          </mxGeometry>
        </mxCell>
        <mxCell id="yjwkkPw8K8LZouZbog4r-61" value="&lt;u&gt;&lt;b&gt;Progress ID&lt;/b&gt;&lt;/u&gt;" style="ellipse;whiteSpace=wrap;html=1;" parent="1" vertex="1">
          <mxGeometry x="1672.88" y="480.75" width="78.13" height="33.75" as="geometry" />
        </mxCell>
        <mxCell id="yjwkkPw8K8LZouZbog4r-63" value="B_Weight" style="ellipse;whiteSpace=wrap;html=1;" parent="1" vertex="1">
          <mxGeometry x="1956" y="562" width="63.04" height="23.06" as="geometry" />
        </mxCell>
        <mxCell id="yjwkkPw8K8LZouZbog4r-65" value="A_Weight" style="ellipse;whiteSpace=wrap;html=1;" parent="1" vertex="1">
          <mxGeometry x="1536" y="572" width="60" height="30" as="geometry" />
        </mxCell>
        <mxCell id="yjwkkPw8K8LZouZbog4r-67" value="B_Photo" style="ellipse;whiteSpace=wrap;html=1;" parent="1" vertex="1">
          <mxGeometry x="1974.1799999999998" y="599" width="61.82" height="25.5" as="geometry" />
        </mxCell>
        <mxCell id="yjwkkPw8K8LZouZbog4r-69" value="A_Photo" style="ellipse;whiteSpace=wrap;html=1;" parent="1" vertex="1">
          <mxGeometry x="1566.62" y="527" width="50" height="30" as="geometry" />
        </mxCell>
        <mxCell id="yjwkkPw8K8LZouZbog4r-80" value="" style="endArrow=none;html=1;rounded=0;entryX=0.472;entryY=0.999;entryDx=0;entryDy=0;entryPerimeter=0;exitX=0.5;exitY=0;exitDx=0;exitDy=0;" parent="1" source="yjwkkPw8K8LZouZbog4r-25" target="yjwkkPw8K8LZouZbog4r-2" edge="1">
          <mxGeometry width="50" height="50" relative="1" as="geometry">
            <mxPoint x="1229" y="739" as="sourcePoint" />
            <mxPoint x="1516" y="1019" as="targetPoint" />
          </mxGeometry>
        </mxCell>
        <mxCell id="yjwkkPw8K8LZouZbog4r-93" value="&lt;b&gt;&lt;font style=&quot;font-size: 18px;&quot;&gt;M&lt;/font&gt;&lt;/b&gt;" style="text;html=1;strokeColor=none;fillColor=none;align=center;verticalAlign=middle;whiteSpace=wrap;rounded=0;" parent="1" vertex="1">
          <mxGeometry x="1176.69" y="744" width="60" height="30" as="geometry" />
        </mxCell>
        <mxCell id="yjwkkPw8K8LZouZbog4r-101" value="&lt;b&gt;&lt;font style=&quot;font-size: 18px;&quot;&gt;M&lt;/font&gt;&lt;/b&gt;" style="text;html=1;strokeColor=none;fillColor=none;align=center;verticalAlign=middle;whiteSpace=wrap;rounded=0;" parent="1" vertex="1">
          <mxGeometry x="1577.88" y="605.93" width="60" height="30" as="geometry" />
        </mxCell>
        <mxCell id="yjwkkPw8K8LZouZbog4r-291" style="edgeStyle=orthogonalEdgeStyle;rounded=0;orthogonalLoop=1;jettySize=auto;html=1;exitX=0;exitY=0.5;exitDx=0;exitDy=0;entryX=0.5;entryY=1;entryDx=0;entryDy=0;" parent="1" source="yjwkkPw8K8LZouZbog4r-102" target="yjwkkPw8K8LZouZbog4r-7" edge="1">
          <mxGeometry relative="1" as="geometry" />
        </mxCell>
        <mxCell id="yjwkkPw8K8LZouZbog4r-102" value="Customer_rate_trainer" style="ellipse;whiteSpace=wrap;html=1;align=center;" parent="1" vertex="1">
          <mxGeometry x="1795.4" y="472.5" width="130" height="42" as="geometry" />
        </mxCell>
        <mxCell id="yjwkkPw8K8LZouZbog4r-263" style="edgeStyle=orthogonalEdgeStyle;rounded=0;orthogonalLoop=1;jettySize=auto;html=1;exitX=0;exitY=0.5;exitDx=0;exitDy=0;entryX=1;entryY=1;entryDx=0;entryDy=0;" parent="1" source="yjwkkPw8K8LZouZbog4r-107" target="yjwkkPw8K8LZouZbog4r-180" edge="1">
          <mxGeometry relative="1" as="geometry" />
        </mxCell>
        <mxCell id="yjwkkPw8K8LZouZbog4r-107" value="Email" style="ellipse;whiteSpace=wrap;html=1;align=center;fontSize=16;" parent="1" vertex="1">
          <mxGeometry x="2059.81" y="276.75" width="100" height="40" as="geometry" />
        </mxCell>
        <mxCell id="yjwkkPw8K8LZouZbog4r-108" value="O" style="ellipse;whiteSpace=wrap;html=1;aspect=fixed;fontSize=16;" parent="1" vertex="1">
          <mxGeometry x="1762.3200000000002" y="329.75" width="48.75" height="48.75" as="geometry" />
        </mxCell>
        <mxCell id="yjwkkPw8K8LZouZbog4r-109" value="" style="endArrow=none;html=1;rounded=0;fontSize=12;startSize=8;endSize=8;curved=1;exitX=0.595;exitY=0.012;exitDx=0;exitDy=0;exitPerimeter=0;entryX=0.549;entryY=0.984;entryDx=0;entryDy=0;entryPerimeter=0;" parent="1" source="yjwkkPw8K8LZouZbog4r-108" target="yjwkkPw8K8LZouZbog4r-169" edge="1">
          <mxGeometry width="50" height="50" relative="1" as="geometry">
            <mxPoint x="1759.81" y="158.5" as="sourcePoint" />
            <mxPoint x="1859.81" y="58.5" as="targetPoint" />
          </mxGeometry>
        </mxCell>
        <mxCell id="yjwkkPw8K8LZouZbog4r-110" value="" style="endArrow=none;html=1;rounded=0;fontSize=12;startSize=8;endSize=8;curved=1;entryX=0.5;entryY=1;entryDx=0;entryDy=0;exitX=0.5;exitY=0;exitDx=0;exitDy=0;" parent="1" source="yjwkkPw8K8LZouZbog4r-108" target="yjwkkPw8K8LZouZbog4r-169" edge="1">
          <mxGeometry width="50" height="50" relative="1" as="geometry">
            <mxPoint x="1848.0700000000002" y="88.5" as="sourcePoint" />
            <mxPoint x="1859.1200000000003" y="179" as="targetPoint" />
          </mxGeometry>
        </mxCell>
        <mxCell id="yjwkkPw8K8LZouZbog4r-111" value="" style="endArrow=none;html=1;rounded=0;fontSize=12;startSize=8;endSize=8;curved=1;exitX=0;exitY=0.5;exitDx=0;exitDy=0;entryX=1;entryY=0.25;entryDx=0;entryDy=0;" parent="1" source="yjwkkPw8K8LZouZbog4r-108" target="yjwkkPw8K8LZouZbog4r-142" edge="1">
          <mxGeometry width="50" height="50" relative="1" as="geometry">
            <mxPoint x="1296" y="649" as="sourcePoint" />
            <mxPoint x="1346" y="599" as="targetPoint" />
          </mxGeometry>
        </mxCell>
        <mxCell id="yjwkkPw8K8LZouZbog4r-112" value="" style="endArrow=none;html=1;rounded=0;fontSize=12;startSize=8;endSize=8;curved=1;entryX=1;entryY=0.5;entryDx=0;entryDy=0;exitX=0;exitY=0.25;exitDx=0;exitDy=0;" parent="1" source="yjwkkPw8K8LZouZbog4r-3" target="yjwkkPw8K8LZouZbog4r-108" edge="1">
          <mxGeometry width="50" height="50" relative="1" as="geometry">
            <mxPoint x="2136" y="589" as="sourcePoint" />
            <mxPoint x="2126" y="589" as="targetPoint" />
          </mxGeometry>
        </mxCell>
        <mxCell id="yjwkkPw8K8LZouZbog4r-113" style="edgeStyle=none;curved=1;rounded=0;orthogonalLoop=1;jettySize=auto;html=1;exitX=0.5;exitY=1;exitDx=0;exitDy=0;fontSize=12;startSize=8;endSize=8;strokeColor=#000000;" parent="1" edge="1">
          <mxGeometry relative="1" as="geometry">
            <mxPoint x="1206" y="572" as="sourcePoint" />
            <mxPoint x="1206" y="572" as="targetPoint" />
          </mxGeometry>
        </mxCell>
        <mxCell id="yjwkkPw8K8LZouZbog4r-114" value="Specialization" style="ellipse;shape=doubleEllipse;margin=3;whiteSpace=wrap;html=1;align=center;fontSize=16;" parent="1" vertex="1">
          <mxGeometry x="2435" y="619" width="115" height="40" as="geometry" />
        </mxCell>
        <mxCell id="yjwkkPw8K8LZouZbog4r-115" value="Certification" style="ellipse;shape=doubleEllipse;margin=3;whiteSpace=wrap;html=1;align=center;fontSize=16;" parent="1" vertex="1">
          <mxGeometry x="2415" y="562" width="115" height="40" as="geometry" />
        </mxCell>
        <mxCell id="yjwkkPw8K8LZouZbog4r-117" value="Workout&lt;br&gt;&amp;nbsp;Effectiveness" style="ellipse;whiteSpace=wrap;html=1;align=center;" parent="1" vertex="1">
          <mxGeometry x="1897.88" y="1005.25" width="88.76" height="42.5" as="geometry" />
        </mxCell>
        <mxCell id="yjwkkPw8K8LZouZbog4r-119" style="edgeStyle=none;curved=1;rounded=0;orthogonalLoop=1;jettySize=auto;html=1;exitX=1;exitY=0.5;exitDx=0;exitDy=0;fontSize=12;startSize=8;endSize=8;" parent="1" source="yjwkkPw8K8LZouZbog4r-63" target="yjwkkPw8K8LZouZbog4r-63" edge="1">
          <mxGeometry relative="1" as="geometry" />
        </mxCell>
        <mxCell id="863oaCRpfRgj1-0JgvNW-7" style="edgeStyle=orthogonalEdgeStyle;rounded=0;orthogonalLoop=1;jettySize=auto;html=1;entryX=0;entryY=0.5;entryDx=0;entryDy=0;" edge="1" parent="1" source="yjwkkPw8K8LZouZbog4r-125" target="yjwkkPw8K8LZouZbog4r-25">
          <mxGeometry relative="1" as="geometry" />
        </mxCell>
        <mxCell id="yjwkkPw8K8LZouZbog4r-125" value="Supplement Purchase Frequency" style="ellipse;whiteSpace=wrap;html=1;align=center;" parent="1" vertex="1">
          <mxGeometry x="945.4099999999999" y="784" width="195" height="60" as="geometry" />
        </mxCell>
        <mxCell id="yjwkkPw8K8LZouZbog4r-126" value="آName" style="ellipse;whiteSpace=wrap;html=1;align=center;" parent="1" vertex="1">
          <mxGeometry x="1239.1100000000001" y="1056.5" width="100" height="40" as="geometry" />
        </mxCell>
        <mxCell id="yjwkkPw8K8LZouZbog4r-130" value="" style="endArrow=none;html=1;rounded=0;fontSize=12;startSize=8;endSize=8;curved=1;entryX=0.5;entryY=1;entryDx=0;entryDy=0;exitX=0.5;exitY=0;exitDx=0;exitDy=0;" parent="1" source="yjwkkPw8K8LZouZbog4r-126" target="yjwkkPw8K8LZouZbog4r-1" edge="1">
          <mxGeometry width="50" height="50" relative="1" as="geometry">
            <mxPoint x="1391.59" y="1171.5" as="sourcePoint" />
            <mxPoint x="1441.59" y="1121.5" as="targetPoint" />
          </mxGeometry>
        </mxCell>
        <mxCell id="yjwkkPw8K8LZouZbog4r-138" value="Goal Achieving Rate" style="ellipse;whiteSpace=wrap;html=1;align=center;" parent="1" vertex="1">
          <mxGeometry x="1707.87" y="519" width="88.13" height="38" as="geometry" />
        </mxCell>
        <mxCell id="yjwkkPw8K8LZouZbog4r-241" style="edgeStyle=orthogonalEdgeStyle;orthogonalLoop=1;jettySize=auto;html=1;exitX=1;exitY=0.75;exitDx=0;exitDy=0;entryX=0;entryY=0.5;entryDx=0;entryDy=0;endArrow=none;endFill=0;rounded=0;" parent="1" source="yjwkkPw8K8LZouZbog4r-142" target="yjwkkPw8K8LZouZbog4r-12" edge="1">
          <mxGeometry relative="1" as="geometry">
            <Array as="points">
              <mxPoint x="1496" y="679" />
              <mxPoint x="1496" y="894" />
            </Array>
          </mxGeometry>
        </mxCell>
        <mxCell id="yjwkkPw8K8LZouZbog4r-255" style="edgeStyle=orthogonalEdgeStyle;orthogonalLoop=1;jettySize=auto;html=1;exitX=1;exitY=1;exitDx=0;exitDy=0;entryX=0;entryY=0.5;entryDx=0;entryDy=0;endArrow=none;endFill=0;rounded=0;" parent="1" source="yjwkkPw8K8LZouZbog4r-142" target="yjwkkPw8K8LZouZbog4r-22" edge="1">
          <mxGeometry relative="1" as="geometry">
            <Array as="points">
              <mxPoint x="1281" y="779" />
              <mxPoint x="1416" y="779" />
              <mxPoint x="1416" y="1099" />
            </Array>
          </mxGeometry>
        </mxCell>
        <mxCell id="yjwkkPw8K8LZouZbog4r-287" style="orthogonalLoop=1;jettySize=auto;html=1;exitX=1;exitY=0.5;exitDx=0;exitDy=0;entryX=0;entryY=0.5;entryDx=0;entryDy=0;endArrow=none;endFill=0;" parent="1" source="yjwkkPw8K8LZouZbog4r-142" target="yjwkkPw8K8LZouZbog4r-7" edge="1">
          <mxGeometry relative="1" as="geometry" />
        </mxCell>
        <mxCell id="yjwkkPw8K8LZouZbog4r-298" style="rounded=0;orthogonalLoop=1;jettySize=auto;html=1;exitX=1;exitY=0.628;exitDx=0;exitDy=0;entryX=0.227;entryY=0.72;entryDx=0;entryDy=0;exitPerimeter=0;endArrow=none;endFill=0;shape=link;entryPerimeter=0;" parent="1" source="yjwkkPw8K8LZouZbog4r-142" target="yjwkkPw8K8LZouZbog4r-201" edge="1">
          <mxGeometry relative="1" as="geometry" />
        </mxCell>
        <mxCell id="yjwkkPw8K8LZouZbog4r-142" value="&lt;font style=&quot;font-size: 18px;&quot;&gt;Customer&lt;/font&gt;" style="rounded=0;whiteSpace=wrap;html=1;strokeColor=#000000;" parent="1" vertex="1">
          <mxGeometry x="1181" y="641.5" width="100" height="50" as="geometry" />
        </mxCell>
        <mxCell id="yjwkkPw8K8LZouZbog4r-143" value="&lt;font style=&quot;font-size: 18px;&quot;&gt;Nutrition_program&lt;/font&gt;" style="rounded=0;whiteSpace=wrap;html=1;" parent="1" vertex="1">
          <mxGeometry x="1687.88" y="762" width="150" height="50" as="geometry" />
        </mxCell>
        <mxCell id="yjwkkPw8K8LZouZbog4r-148" value="Target" style="ellipse;whiteSpace=wrap;html=1;strokeColor=#000000;" parent="1" vertex="1">
          <mxGeometry x="1257.87" y="567" width="60" height="30" as="geometry" />
        </mxCell>
        <mxCell id="yjwkkPw8K8LZouZbog4r-149" value="level" style="ellipse;whiteSpace=wrap;html=1;strokeColor=#000000;" parent="1" vertex="1">
          <mxGeometry x="1166" y="567" width="70" height="30" as="geometry" />
        </mxCell>
        <mxCell id="yjwkkPw8K8LZouZbog4r-150" value="" style="endArrow=none;html=1;rounded=0;exitX=0.75;exitY=0;exitDx=0;exitDy=0;entryX=0.5;entryY=1;entryDx=0;entryDy=0;strokeColor=#000000;" parent="1" source="yjwkkPw8K8LZouZbog4r-142" target="yjwkkPw8K8LZouZbog4r-148" edge="1">
          <mxGeometry width="50" height="50" relative="1" as="geometry">
            <mxPoint x="1501" y="671.5" as="sourcePoint" />
            <mxPoint x="1551" y="621.5" as="targetPoint" />
          </mxGeometry>
        </mxCell>
        <mxCell id="yjwkkPw8K8LZouZbog4r-151" value="" style="endArrow=none;html=1;rounded=0;entryX=0.5;entryY=1;entryDx=0;entryDy=0;exitX=0.5;exitY=0;exitDx=0;exitDy=0;strokeColor=#000000;" parent="1" source="yjwkkPw8K8LZouZbog4r-142" target="yjwkkPw8K8LZouZbog4r-149" edge="1">
          <mxGeometry width="50" height="50" relative="1" as="geometry">
            <mxPoint x="1186" y="639" as="sourcePoint" />
            <mxPoint x="1566" y="679" as="targetPoint" />
          </mxGeometry>
        </mxCell>
        <mxCell id="yjwkkPw8K8LZouZbog4r-238" value="" style="edgeStyle=orthogonalEdgeStyle;rounded=0;orthogonalLoop=1;jettySize=auto;html=1;" parent="1" source="yjwkkPw8K8LZouZbog4r-155" target="yjwkkPw8K8LZouZbog4r-143" edge="1">
          <mxGeometry relative="1" as="geometry" />
        </mxCell>
        <mxCell id="yjwkkPw8K8LZouZbog4r-155" value="&lt;u&gt;&lt;b&gt;Nutrition ID&lt;/b&gt;&lt;/u&gt;" style="ellipse;whiteSpace=wrap;html=1;" parent="1" vertex="1">
          <mxGeometry x="1557.88" y="762" width="80" height="40" as="geometry" />
        </mxCell>
        <mxCell id="yjwkkPw8K8LZouZbog4r-239" style="edgeStyle=orthogonalEdgeStyle;rounded=0;orthogonalLoop=1;jettySize=auto;html=1;exitX=0;exitY=0.5;exitDx=0;exitDy=0;entryX=1;entryY=0.25;entryDx=0;entryDy=0;" parent="1" source="yjwkkPw8K8LZouZbog4r-156" target="yjwkkPw8K8LZouZbog4r-143" edge="1">
          <mxGeometry relative="1" as="geometry" />
        </mxCell>
        <mxCell id="yjwkkPw8K8LZouZbog4r-156" value="Calories" style="ellipse;whiteSpace=wrap;html=1;" parent="1" vertex="1">
          <mxGeometry x="1897.88" y="746" width="60" height="30" as="geometry" />
        </mxCell>
        <mxCell id="yjwkkPw8K8LZouZbog4r-240" style="edgeStyle=orthogonalEdgeStyle;rounded=0;orthogonalLoop=1;jettySize=auto;html=1;exitX=0;exitY=0.5;exitDx=0;exitDy=0;entryX=1;entryY=0.75;entryDx=0;entryDy=0;" parent="1" source="yjwkkPw8K8LZouZbog4r-157" target="yjwkkPw8K8LZouZbog4r-143" edge="1">
          <mxGeometry relative="1" as="geometry" />
        </mxCell>
        <mxCell id="yjwkkPw8K8LZouZbog4r-157" value="Plan Notes" style="ellipse;whiteSpace=wrap;html=1;" parent="1" vertex="1">
          <mxGeometry x="1897.88" y="779" width="70" height="40" as="geometry" />
        </mxCell>
        <mxCell id="yjwkkPw8K8LZouZbog4r-167" value="&lt;b&gt;&lt;font style=&quot;font-size: 18px;&quot;&gt;M&lt;/font&gt;&lt;/b&gt;" style="text;html=1;strokeColor=none;fillColor=none;align=center;verticalAlign=middle;whiteSpace=wrap;rounded=0;" parent="1" vertex="1">
          <mxGeometry x="1169.78" y="839" width="60" height="30" as="geometry" />
        </mxCell>
        <mxCell id="yjwkkPw8K8LZouZbog4r-168" value="&lt;b&gt;&lt;font style=&quot;font-size: 18px;&quot;&gt;1&lt;/font&gt;&lt;/b&gt;" style="text;html=1;strokeColor=none;fillColor=none;align=center;verticalAlign=middle;whiteSpace=wrap;rounded=0;" parent="1" vertex="1">
          <mxGeometry x="1433.5" y="628.31" width="60" height="30" as="geometry" />
        </mxCell>
        <mxCell id="yjwkkPw8K8LZouZbog4r-169" value="member" style="html=1;dashed=0;whiteSpace=wrap;fontSize=16;" parent="1" vertex="1">
          <mxGeometry x="1736.69" y="230" width="100" height="50" as="geometry" />
        </mxCell>
        <mxCell id="yjwkkPw8K8LZouZbog4r-170" value="&lt;b&gt;&lt;u&gt;Member_ID&lt;/u&gt;&lt;/b&gt;" style="ellipse;whiteSpace=wrap;html=1;align=center;fontSize=16;" parent="1" vertex="1">
          <mxGeometry x="1760.44" y="123.75" width="125" height="40" as="geometry" />
        </mxCell>
        <mxCell id="yjwkkPw8K8LZouZbog4r-171" value="Name" style="ellipse;whiteSpace=wrap;html=1;align=center;fontSize=16;" parent="1" vertex="1">
          <mxGeometry x="1650.44" y="133.75" width="100" height="40" as="geometry" />
        </mxCell>
        <mxCell id="yjwkkPw8K8LZouZbog4r-172" value="Gender" style="ellipse;whiteSpace=wrap;html=1;align=center;fontSize=16;" parent="1" vertex="1">
          <mxGeometry x="1874.1799999999998" y="183.75" width="100" height="40" as="geometry" />
        </mxCell>
        <mxCell id="yjwkkPw8K8LZouZbog4r-173" style="edgeStyle=orthogonalEdgeStyle;rounded=0;orthogonalLoop=1;jettySize=auto;html=1;entryX=1;entryY=0.5;entryDx=0;entryDy=0;" parent="1" target="yjwkkPw8K8LZouZbog4r-180" edge="1">
          <mxGeometry relative="1" as="geometry">
            <mxPoint x="2072.9400277366926" y="243.76923076923072" as="sourcePoint" />
          </mxGeometry>
        </mxCell>
        <mxCell id="yjwkkPw8K8LZouZbog4r-174" value="Phone_Number" style="ellipse;whiteSpace=wrap;html=1;align=center;fontSize=16;" parent="1" vertex="1">
          <mxGeometry x="2072.94" y="223.75" width="120" height="40" as="geometry" />
        </mxCell>
        <mxCell id="yjwkkPw8K8LZouZbog4r-175" value="" style="endArrow=none;html=1;rounded=0;fontSize=12;startSize=8;endSize=8;curved=1;entryX=0.5;entryY=1;entryDx=0;entryDy=0;exitX=0.5;exitY=0;exitDx=0;exitDy=0;" parent="1" source="yjwkkPw8K8LZouZbog4r-169" target="yjwkkPw8K8LZouZbog4r-170" edge="1">
          <mxGeometry width="50" height="50" relative="1" as="geometry">
            <mxPoint x="1649.81" y="98.5" as="sourcePoint" />
            <mxPoint x="1699.81" y="48.5" as="targetPoint" />
          </mxGeometry>
        </mxCell>
        <mxCell id="yjwkkPw8K8LZouZbog4r-176" value="" style="endArrow=none;html=1;rounded=0;fontSize=12;startSize=8;endSize=8;curved=1;entryX=0;entryY=1;entryDx=0;entryDy=0;exitX=0.75;exitY=0;exitDx=0;exitDy=0;" parent="1" source="yjwkkPw8K8LZouZbog4r-169" target="yjwkkPw8K8LZouZbog4r-172" edge="1">
          <mxGeometry width="50" height="50" relative="1" as="geometry">
            <mxPoint x="1649.81" y="98.5" as="sourcePoint" />
            <mxPoint x="1699.81" y="48.5" as="targetPoint" />
          </mxGeometry>
        </mxCell>
        <mxCell id="yjwkkPw8K8LZouZbog4r-177" value="" style="endArrow=none;html=1;rounded=0;fontSize=12;startSize=8;endSize=8;curved=1;entryX=0.5;entryY=1;entryDx=0;entryDy=0;exitX=0.25;exitY=0;exitDx=0;exitDy=0;" parent="1" source="yjwkkPw8K8LZouZbog4r-169" target="yjwkkPw8K8LZouZbog4r-171" edge="1">
          <mxGeometry width="50" height="50" relative="1" as="geometry">
            <mxPoint x="1709.81" y="68.5" as="sourcePoint" />
            <mxPoint x="1759.81" y="18.5" as="targetPoint" />
          </mxGeometry>
        </mxCell>
        <mxCell id="yjwkkPw8K8LZouZbog4r-178" style="edgeStyle=none;curved=1;rounded=0;orthogonalLoop=1;jettySize=auto;html=1;exitX=0.5;exitY=1;exitDx=0;exitDy=0;fontSize=12;startSize=8;endSize=8;strokeColor=#000000;" parent="1" edge="1">
          <mxGeometry relative="1" as="geometry">
            <mxPoint x="1206" y="572" as="sourcePoint" />
            <mxPoint x="1206" y="572" as="targetPoint" />
          </mxGeometry>
        </mxCell>
        <mxCell id="yjwkkPw8K8LZouZbog4r-179" value="" style="edgeStyle=orthogonalEdgeStyle;rounded=0;orthogonalLoop=1;jettySize=auto;html=1;" parent="1" source="yjwkkPw8K8LZouZbog4r-180" target="yjwkkPw8K8LZouZbog4r-169" edge="1">
          <mxGeometry relative="1" as="geometry" />
        </mxCell>
        <mxCell id="yjwkkPw8K8LZouZbog4r-180" value="Contact Information" style="ellipse;whiteSpace=wrap;html=1;align=center;fontSize=16;" parent="1" vertex="1">
          <mxGeometry x="1872.96" y="246.75" width="155" height="40" as="geometry" />
        </mxCell>
        <mxCell id="yjwkkPw8K8LZouZbog4r-183" value="Trainer_Respond_Time_Rate" style="ellipse;whiteSpace=wrap;html=1;align=center;" parent="1" vertex="1">
          <mxGeometry x="2235" y="514.5" width="180" height="55" as="geometry" />
        </mxCell>
        <mxCell id="yjwkkPw8K8LZouZbog4r-302" style="rounded=0;orthogonalLoop=1;jettySize=auto;html=1;exitX=1;exitY=0.5;exitDx=0;exitDy=0;entryX=0;entryY=0.5;entryDx=0;entryDy=0;shape=link;" parent="1" source="yjwkkPw8K8LZouZbog4r-184" target="yjwkkPw8K8LZouZbog4r-301" edge="1">
          <mxGeometry relative="1" as="geometry" />
        </mxCell>
        <mxCell id="yjwkkPw8K8LZouZbog4r-312" style="edgeStyle=orthogonalEdgeStyle;rounded=0;orthogonalLoop=1;jettySize=auto;html=1;exitX=0;exitY=0;exitDx=0;exitDy=0;entryX=0.5;entryY=1;entryDx=0;entryDy=0;" parent="1" source="yjwkkPw8K8LZouZbog4r-184" target="yjwkkPw8K8LZouZbog4r-221" edge="1">
          <mxGeometry relative="1" as="geometry">
            <Array as="points">
              <mxPoint x="1652" y="612" />
            </Array>
          </mxGeometry>
        </mxCell>
        <mxCell id="yjwkkPw8K8LZouZbog4r-316" style="edgeStyle=orthogonalEdgeStyle;rounded=0;orthogonalLoop=1;jettySize=auto;html=1;exitX=1;exitY=0;exitDx=0;exitDy=0;entryX=0.5;entryY=1;entryDx=0;entryDy=0;" parent="1" source="yjwkkPw8K8LZouZbog4r-184" target="yjwkkPw8K8LZouZbog4r-219" edge="1">
          <mxGeometry relative="1" as="geometry">
            <Array as="points">
              <mxPoint x="1802" y="615" />
              <mxPoint x="1827" y="615" />
              <mxPoint x="1827" y="629" />
              <mxPoint x="1881" y="629" />
            </Array>
          </mxGeometry>
        </mxCell>
        <mxCell id="yjwkkPw8K8LZouZbog4r-317" style="rounded=0;orthogonalLoop=1;jettySize=auto;html=1;exitX=0.75;exitY=0;exitDx=0;exitDy=0;entryX=0.5;entryY=1;entryDx=0;entryDy=0;" parent="1" source="yjwkkPw8K8LZouZbog4r-184" target="yjwkkPw8K8LZouZbog4r-308" edge="1">
          <mxGeometry relative="1" as="geometry" />
        </mxCell>
        <mxCell id="yjwkkPw8K8LZouZbog4r-319" style="edgeStyle=orthogonalEdgeStyle;rounded=0;orthogonalLoop=1;jettySize=auto;html=1;exitX=0.5;exitY=0;exitDx=0;exitDy=0;entryX=0.5;entryY=1;entryDx=0;entryDy=0;" parent="1" source="yjwkkPw8K8LZouZbog4r-184" target="yjwkkPw8K8LZouZbog4r-138" edge="1">
          <mxGeometry relative="1" as="geometry" />
        </mxCell>
        <mxCell id="yjwkkPw8K8LZouZbog4r-184" value="Transformation" style="shape=ext;margin=3;double=1;whiteSpace=wrap;html=1;align=center;" parent="1" vertex="1">
          <mxGeometry x="1687.28" y="612.06" width="115" height="40" as="geometry" />
        </mxCell>
        <mxCell id="yjwkkPw8K8LZouZbog4r-185" style="edgeStyle=none;curved=1;rounded=0;orthogonalLoop=1;jettySize=auto;html=1;exitX=1;exitY=0.5;exitDx=0;exitDy=0;fontSize=12;startSize=8;endSize=8;" parent="1" edge="1">
          <mxGeometry relative="1" as="geometry">
            <mxPoint x="930.3699999999999" y="9" as="sourcePoint" />
            <mxPoint x="930.3699999999999" y="9" as="targetPoint" />
          </mxGeometry>
        </mxCell>
        <mxCell id="863oaCRpfRgj1-0JgvNW-1" style="edgeStyle=orthogonalEdgeStyle;rounded=0;orthogonalLoop=1;jettySize=auto;html=1;entryX=1;entryY=1;entryDx=0;entryDy=0;" edge="1" parent="1" source="yjwkkPw8K8LZouZbog4r-199" target="yjwkkPw8K8LZouZbog4r-12">
          <mxGeometry relative="1" as="geometry">
            <Array as="points">
              <mxPoint x="1780" y="969" />
              <mxPoint x="1780" y="914" />
            </Array>
          </mxGeometry>
        </mxCell>
        <mxCell id="yjwkkPw8K8LZouZbog4r-199" value="Nutrition_Effectiveness_Rate" style="ellipse;whiteSpace=wrap;html=1;align=center;" parent="1" vertex="1">
          <mxGeometry x="1925.4" y="944" width="161.25" height="50" as="geometry" />
        </mxCell>
        <mxCell id="yjwkkPw8K8LZouZbog4r-201" value="Has" style="shape=rhombus;double=1;perimeter=rhombusPerimeter;whiteSpace=wrap;html=1;align=center;" parent="1" vertex="1">
          <mxGeometry x="1485.3799999999999" y="612.06" width="120" height="60" as="geometry" />
        </mxCell>
        <mxCell id="yjwkkPw8K8LZouZbog4r-236" style="edgeStyle=orthogonalEdgeStyle;rounded=0;orthogonalLoop=1;jettySize=auto;html=1;exitX=0;exitY=1;exitDx=0;exitDy=0;entryX=1;entryY=0;entryDx=0;entryDy=0;" parent="1" source="yjwkkPw8K8LZouZbog4r-202" target="yjwkkPw8K8LZouZbog4r-143" edge="1">
          <mxGeometry relative="1" as="geometry" />
        </mxCell>
        <mxCell id="yjwkkPw8K8LZouZbog4r-202" value="Type" style="ellipse;whiteSpace=wrap;html=1;align=center;" parent="1" vertex="1">
          <mxGeometry x="1840.4" y="714" width="50" height="30" as="geometry" />
        </mxCell>
        <mxCell id="yjwkkPw8K8LZouZbog4r-233" style="edgeStyle=orthogonalEdgeStyle;rounded=0;orthogonalLoop=1;jettySize=auto;html=1;entryX=0;entryY=1;entryDx=0;entryDy=0;" parent="1" source="yjwkkPw8K8LZouZbog4r-205" target="yjwkkPw8K8LZouZbog4r-142" edge="1">
          <mxGeometry relative="1" as="geometry" />
        </mxCell>
        <mxCell id="yjwkkPw8K8LZouZbog4r-205" value="Body_Information" style="ellipse;whiteSpace=wrap;html=1;align=center;fontSize=16;" parent="1" vertex="1">
          <mxGeometry x="945.4100000000001" y="714" width="180" height="40" as="geometry" />
        </mxCell>
        <mxCell id="yjwkkPw8K8LZouZbog4r-206" style="edgeStyle=orthogonalEdgeStyle;rounded=0;orthogonalLoop=1;jettySize=auto;html=1;entryX=0;entryY=0.5;entryDx=0;entryDy=0;" parent="1" source="yjwkkPw8K8LZouZbog4r-207" target="yjwkkPw8K8LZouZbog4r-205" edge="1">
          <mxGeometry relative="1" as="geometry" />
        </mxCell>
        <mxCell id="yjwkkPw8K8LZouZbog4r-207" value="Height" style="ellipse;whiteSpace=wrap;html=1;align=center;" parent="1" vertex="1">
          <mxGeometry x="850.3700000000001" y="649" width="100" height="40" as="geometry" />
        </mxCell>
        <mxCell id="yjwkkPw8K8LZouZbog4r-208" value="" style="edgeStyle=orthogonalEdgeStyle;rounded=0;orthogonalLoop=1;jettySize=auto;html=1;" parent="1" source="yjwkkPw8K8LZouZbog4r-209" target="yjwkkPw8K8LZouZbog4r-205" edge="1">
          <mxGeometry relative="1" as="geometry">
            <Array as="points">
              <mxPoint x="1011" y="709" />
              <mxPoint x="996" y="709" />
            </Array>
          </mxGeometry>
        </mxCell>
        <mxCell id="yjwkkPw8K8LZouZbog4r-209" value="Weight" style="ellipse;whiteSpace=wrap;html=1;align=center;" parent="1" vertex="1">
          <mxGeometry x="961.0000000000002" y="649" width="100" height="40" as="geometry" />
        </mxCell>
        <mxCell id="yjwkkPw8K8LZouZbog4r-210" style="edgeStyle=orthogonalEdgeStyle;rounded=0;orthogonalLoop=1;jettySize=auto;html=1;entryX=0;entryY=0.5;entryDx=0;entryDy=0;" parent="1" source="yjwkkPw8K8LZouZbog4r-211" target="yjwkkPw8K8LZouZbog4r-169" edge="1">
          <mxGeometry relative="1" as="geometry" />
        </mxCell>
        <mxCell id="yjwkkPw8K8LZouZbog4r-211" value="Date_of_Birth" style="ellipse;whiteSpace=wrap;html=1;align=center;" parent="1" vertex="1">
          <mxGeometry x="1569.8100000000002" y="270" width="100" height="40" as="geometry" />
        </mxCell>
        <mxCell id="yjwkkPw8K8LZouZbog4r-212" style="edgeStyle=orthogonalEdgeStyle;rounded=0;orthogonalLoop=1;jettySize=auto;html=1;entryX=0;entryY=0.25;entryDx=0;entryDy=0;" parent="1" source="yjwkkPw8K8LZouZbog4r-213" target="yjwkkPw8K8LZouZbog4r-169" edge="1">
          <mxGeometry relative="1" as="geometry" />
        </mxCell>
        <mxCell id="yjwkkPw8K8LZouZbog4r-213" value="Age" style="ellipse;whiteSpace=wrap;html=1;align=center;dashed=1;" parent="1" vertex="1">
          <mxGeometry x="1582.96" y="190" width="100" height="40" as="geometry" />
        </mxCell>
        <mxCell id="yjwkkPw8K8LZouZbog4r-214" style="edgeStyle=orthogonalEdgeStyle;rounded=0;orthogonalLoop=1;jettySize=auto;html=1;entryX=1;entryY=1;entryDx=0;entryDy=0;" parent="1" source="yjwkkPw8K8LZouZbog4r-215" target="yjwkkPw8K8LZouZbog4r-3" edge="1">
          <mxGeometry relative="1" as="geometry" />
        </mxCell>
        <mxCell id="yjwkkPw8K8LZouZbog4r-215" value="Profit" style="ellipse;whiteSpace=wrap;html=1;align=center;dashed=1;" parent="1" vertex="1">
          <mxGeometry x="2443" y="714" width="100" height="40" as="geometry" />
        </mxCell>
        <mxCell id="yjwkkPw8K8LZouZbog4r-251" value="" style="edgeStyle=orthogonalEdgeStyle;rounded=0;orthogonalLoop=1;jettySize=auto;html=1;" parent="1" source="yjwkkPw8K8LZouZbog4r-217" target="yjwkkPw8K8LZouZbog4r-4" edge="1">
          <mxGeometry relative="1" as="geometry" />
        </mxCell>
        <mxCell id="yjwkkPw8K8LZouZbog4r-217" value="Type" style="ellipse;whiteSpace=wrap;html=1;align=center;" parent="1" vertex="1">
          <mxGeometry x="1779.14" y="1275.25" width="50" height="30" as="geometry" />
        </mxCell>
        <mxCell id="yjwkkPw8K8LZouZbog4r-313" style="rounded=0;orthogonalLoop=1;jettySize=auto;html=1;exitX=1;exitY=0.5;exitDx=0;exitDy=0;entryX=0;entryY=0.5;entryDx=0;entryDy=0;" parent="1" source="yjwkkPw8K8LZouZbog4r-219" target="yjwkkPw8K8LZouZbog4r-67" edge="1">
          <mxGeometry relative="1" as="geometry" />
        </mxCell>
        <mxCell id="yjwkkPw8K8LZouZbog4r-314" style="rounded=0;orthogonalLoop=1;jettySize=auto;html=1;exitX=1;exitY=0;exitDx=0;exitDy=0;" parent="1" source="yjwkkPw8K8LZouZbog4r-219" target="yjwkkPw8K8LZouZbog4r-63" edge="1">
          <mxGeometry relative="1" as="geometry" />
        </mxCell>
        <mxCell id="yjwkkPw8K8LZouZbog4r-315" style="rounded=0;orthogonalLoop=1;jettySize=auto;html=1;exitX=0.5;exitY=0;exitDx=0;exitDy=0;entryX=0;entryY=1;entryDx=0;entryDy=0;" parent="1" source="yjwkkPw8K8LZouZbog4r-219" target="yjwkkPw8K8LZouZbog4r-307" edge="1">
          <mxGeometry relative="1" as="geometry" />
        </mxCell>
        <mxCell id="yjwkkPw8K8LZouZbog4r-219" value="Before" style="ellipse;whiteSpace=wrap;html=1;" parent="1" vertex="1">
          <mxGeometry x="1851" y="585.06" width="60" height="30" as="geometry" />
        </mxCell>
        <mxCell id="yjwkkPw8K8LZouZbog4r-309" style="edgeStyle=orthogonalEdgeStyle;rounded=0;orthogonalLoop=1;jettySize=auto;html=1;exitX=0.5;exitY=0;exitDx=0;exitDy=0;entryX=0.5;entryY=1;entryDx=0;entryDy=0;" parent="1" source="yjwkkPw8K8LZouZbog4r-221" target="yjwkkPw8K8LZouZbog4r-306" edge="1">
          <mxGeometry relative="1" as="geometry" />
        </mxCell>
        <mxCell id="yjwkkPw8K8LZouZbog4r-311" style="rounded=0;orthogonalLoop=1;jettySize=auto;html=1;exitX=0;exitY=0.5;exitDx=0;exitDy=0;entryX=1;entryY=0.5;entryDx=0;entryDy=0;" parent="1" source="yjwkkPw8K8LZouZbog4r-221" target="yjwkkPw8K8LZouZbog4r-65" edge="1">
          <mxGeometry relative="1" as="geometry" />
        </mxCell>
        <mxCell id="yjwkkPw8K8LZouZbog4r-221" value="After" style="ellipse;whiteSpace=wrap;html=1;" parent="1" vertex="1">
          <mxGeometry x="1621.62" y="562" width="60" height="30" as="geometry" />
        </mxCell>
        <mxCell id="yjwkkPw8K8LZouZbog4r-244" style="edgeStyle=orthogonalEdgeStyle;rounded=0;orthogonalLoop=1;jettySize=auto;html=1;exitX=0.5;exitY=0;exitDx=0;exitDy=0;entryX=0.469;entryY=1.006;entryDx=0;entryDy=0;entryPerimeter=0;endArrow=baseDash;endFill=0;" parent="1" source="yjwkkPw8K8LZouZbog4r-12" target="yjwkkPw8K8LZouZbog4r-143" edge="1">
          <mxGeometry relative="1" as="geometry" />
        </mxCell>
        <mxCell id="yjwkkPw8K8LZouZbog4r-249" style="edgeStyle=orthogonalEdgeStyle;rounded=0;orthogonalLoop=1;jettySize=auto;html=1;exitX=1;exitY=0;exitDx=0;exitDy=0;entryX=0.048;entryY=1.052;entryDx=0;entryDy=0;entryPerimeter=0;" parent="1" source="yjwkkPw8K8LZouZbog4r-34" target="yjwkkPw8K8LZouZbog4r-4" edge="1">
          <mxGeometry relative="1" as="geometry" />
        </mxCell>
        <mxCell id="yjwkkPw8K8LZouZbog4r-259" style="edgeStyle=orthogonalEdgeStyle;rounded=0;orthogonalLoop=1;jettySize=auto;html=1;exitX=0.5;exitY=1;exitDx=0;exitDy=0;entryX=0.587;entryY=0.056;entryDx=0;entryDy=0;entryPerimeter=0;" parent="1" source="yjwkkPw8K8LZouZbog4r-183" target="yjwkkPw8K8LZouZbog4r-3" edge="1">
          <mxGeometry relative="1" as="geometry" />
        </mxCell>
        <mxCell id="yjwkkPw8K8LZouZbog4r-264" style="edgeStyle=orthogonalEdgeStyle;rounded=0;orthogonalLoop=1;jettySize=auto;html=1;entryX=0.75;entryY=0;entryDx=0;entryDy=0;endArrow=none;endFill=0;" parent="1" source="yjwkkPw8K8LZouZbog4r-25" target="yjwkkPw8K8LZouZbog4r-1" edge="1">
          <mxGeometry relative="1" as="geometry" />
        </mxCell>
        <mxCell id="yjwkkPw8K8LZouZbog4r-265" value="&lt;b&gt;&lt;font style=&quot;font-size: 18px;&quot;&gt;M&lt;/font&gt;&lt;/b&gt;" style="text;html=1;strokeColor=none;fillColor=none;align=center;verticalAlign=middle;whiteSpace=wrap;rounded=0;" parent="1" vertex="1">
          <mxGeometry x="1835.4" y="864" width="60" height="30" as="geometry" />
        </mxCell>
        <mxCell id="yjwkkPw8K8LZouZbog4r-266" value="&lt;span style=&quot;font-size: 18px;&quot;&gt;&lt;b&gt;N&lt;/b&gt;&lt;/span&gt;" style="text;html=1;strokeColor=none;fillColor=none;align=center;verticalAlign=middle;whiteSpace=wrap;rounded=0;" parent="1" vertex="1">
          <mxGeometry x="1692.88" y="852" width="60" height="30" as="geometry" />
        </mxCell>
        <mxCell id="yjwkkPw8K8LZouZbog4r-267" value="&lt;b&gt;&lt;font style=&quot;font-size: 18px;&quot;&gt;M&lt;/font&gt;&lt;/b&gt;" style="text;html=1;strokeColor=none;fillColor=none;align=center;verticalAlign=middle;whiteSpace=wrap;rounded=0;" parent="1" vertex="1">
          <mxGeometry x="1610.38" y="864" width="60" height="30" as="geometry" />
        </mxCell>
        <mxCell id="yjwkkPw8K8LZouZbog4r-269" value="&lt;b&gt;&lt;font style=&quot;font-size: 18px;&quot;&gt;M&lt;/font&gt;&lt;/b&gt;" style="text;html=1;strokeColor=none;fillColor=none;align=center;verticalAlign=middle;whiteSpace=wrap;rounded=0;" parent="1" vertex="1">
          <mxGeometry x="1855.38" y="1103.5" width="60" height="30" as="geometry" />
        </mxCell>
        <mxCell id="yjwkkPw8K8LZouZbog4r-270" value="&lt;span style=&quot;font-size: 18px;&quot;&gt;&lt;b&gt;N&lt;/b&gt;&lt;/span&gt;" style="text;html=1;strokeColor=none;fillColor=none;align=center;verticalAlign=middle;whiteSpace=wrap;rounded=0;" parent="1" vertex="1">
          <mxGeometry x="1691.0100000000002" y="1141.5" width="60" height="30" as="geometry" />
        </mxCell>
        <mxCell id="yjwkkPw8K8LZouZbog4r-271" value="&lt;b&gt;&lt;font style=&quot;font-size: 18px;&quot;&gt;M&lt;/font&gt;&lt;/b&gt;" style="text;html=1;strokeColor=none;fillColor=none;align=center;verticalAlign=middle;whiteSpace=wrap;rounded=0;" parent="1" vertex="1">
          <mxGeometry x="1561.6200000000001" y="1103.5" width="60" height="30" as="geometry" />
        </mxCell>
        <mxCell id="yjwkkPw8K8LZouZbog4r-273" value="Start Date" style="ellipse;whiteSpace=wrap;html=1;" parent="1" vertex="1">
          <mxGeometry x="1621.62" y="919" width="80" height="30" as="geometry" />
        </mxCell>
        <mxCell id="yjwkkPw8K8LZouZbog4r-274" value="Period" style="ellipse;whiteSpace=wrap;html=1;" parent="1" vertex="1">
          <mxGeometry x="1721.6399999999999" y="949" width="60" height="30" as="geometry" />
        </mxCell>
        <mxCell id="yjwkkPw8K8LZouZbog4r-281" style="edgeStyle=orthogonalEdgeStyle;rounded=0;orthogonalLoop=1;jettySize=auto;html=1;exitX=0;exitY=0.5;exitDx=0;exitDy=0;entryX=1;entryY=1;entryDx=0;entryDy=0;endArrow=none;endFill=0;" parent="1" source="yjwkkPw8K8LZouZbog4r-275" target="yjwkkPw8K8LZouZbog4r-12" edge="1">
          <mxGeometry relative="1" as="geometry" />
        </mxCell>
        <mxCell id="yjwkkPw8K8LZouZbog4r-275" value="End Date" style="ellipse;whiteSpace=wrap;html=1;align=center;dashed=1;" parent="1" vertex="1">
          <mxGeometry x="1815.9999999999998" y="919" width="60" height="25" as="geometry" />
        </mxCell>
        <mxCell id="yjwkkPw8K8LZouZbog4r-282" style="edgeStyle=orthogonalEdgeStyle;rounded=0;orthogonalLoop=1;jettySize=auto;html=1;exitX=1;exitY=0.5;exitDx=0;exitDy=0;entryX=0;entryY=0;entryDx=0;entryDy=0;endArrow=none;endFill=0;" parent="1" source="yjwkkPw8K8LZouZbog4r-276" target="yjwkkPw8K8LZouZbog4r-22" edge="1">
          <mxGeometry relative="1" as="geometry" />
        </mxCell>
        <mxCell id="yjwkkPw8K8LZouZbog4r-276" value="Start Date" style="ellipse;whiteSpace=wrap;html=1;" parent="1" vertex="1">
          <mxGeometry x="1625.9999999999998" y="1056.5" width="80" height="30" as="geometry" />
        </mxCell>
        <mxCell id="yjwkkPw8K8LZouZbog4r-283" style="edgeStyle=orthogonalEdgeStyle;rounded=0;orthogonalLoop=1;jettySize=auto;html=1;exitX=0.5;exitY=1;exitDx=0;exitDy=0;entryX=0.5;entryY=0;entryDx=0;entryDy=0;endArrow=none;endFill=0;" parent="1" source="yjwkkPw8K8LZouZbog4r-277" target="yjwkkPw8K8LZouZbog4r-22" edge="1">
          <mxGeometry relative="1" as="geometry" />
        </mxCell>
        <mxCell id="yjwkkPw8K8LZouZbog4r-277" value="Period" style="ellipse;whiteSpace=wrap;html=1;" parent="1" vertex="1">
          <mxGeometry x="1721.6399999999999" y="1011.5" width="60" height="30" as="geometry" />
        </mxCell>
        <mxCell id="yjwkkPw8K8LZouZbog4r-278" value="End Date" style="ellipse;whiteSpace=wrap;html=1;align=center;dashed=1;" parent="1" vertex="1">
          <mxGeometry x="1836.69" y="999" width="60" height="25" as="geometry" />
        </mxCell>
        <mxCell id="yjwkkPw8K8LZouZbog4r-279" style="edgeStyle=orthogonalEdgeStyle;rounded=0;orthogonalLoop=1;jettySize=auto;html=1;exitX=1;exitY=0.5;exitDx=0;exitDy=0;entryX=0.084;entryY=0.577;entryDx=0;entryDy=0;entryPerimeter=0;endArrow=none;endFill=0;" parent="1" source="yjwkkPw8K8LZouZbog4r-273" target="yjwkkPw8K8LZouZbog4r-12" edge="1">
          <mxGeometry relative="1" as="geometry" />
        </mxCell>
        <mxCell id="yjwkkPw8K8LZouZbog4r-280" style="edgeStyle=orthogonalEdgeStyle;rounded=0;orthogonalLoop=1;jettySize=auto;html=1;exitX=0.5;exitY=0;exitDx=0;exitDy=0;entryX=0;entryY=1;entryDx=0;entryDy=0;endArrow=none;endFill=0;" parent="1" source="yjwkkPw8K8LZouZbog4r-274" target="yjwkkPw8K8LZouZbog4r-12" edge="1">
          <mxGeometry relative="1" as="geometry" />
        </mxCell>
        <mxCell id="yjwkkPw8K8LZouZbog4r-284" style="edgeStyle=orthogonalEdgeStyle;rounded=0;orthogonalLoop=1;jettySize=auto;html=1;exitX=0;exitY=0.5;exitDx=0;exitDy=0;entryX=1;entryY=0;entryDx=0;entryDy=0;endArrow=none;endFill=0;" parent="1" source="yjwkkPw8K8LZouZbog4r-278" target="yjwkkPw8K8LZouZbog4r-22" edge="1">
          <mxGeometry relative="1" as="geometry">
            <Array as="points">
              <mxPoint x="1790" y="1012" />
              <mxPoint x="1790" y="1079" />
            </Array>
          </mxGeometry>
        </mxCell>
        <mxCell id="yjwkkPw8K8LZouZbog4r-286" style="edgeStyle=orthogonalEdgeStyle;rounded=0;orthogonalLoop=1;jettySize=auto;html=1;exitX=0.5;exitY=1;exitDx=0;exitDy=0;entryX=0;entryY=0.5;entryDx=0;entryDy=0;" parent="1" source="yjwkkPw8K8LZouZbog4r-285" target="yjwkkPw8K8LZouZbog4r-142" edge="1">
          <mxGeometry relative="1" as="geometry" />
        </mxCell>
        <mxCell id="yjwkkPw8K8LZouZbog4r-285" value="Disease" style="ellipse;whiteSpace=wrap;html=1;align=center;" parent="1" vertex="1">
          <mxGeometry x="1076" y="597.25" width="80" height="37" as="geometry" />
        </mxCell>
        <mxCell id="yjwkkPw8K8LZouZbog4r-289" value="&lt;b&gt;&lt;font style=&quot;font-size: 18px;&quot;&gt;M&lt;/font&gt;&lt;/b&gt;" style="text;html=1;strokeColor=none;fillColor=none;align=center;verticalAlign=middle;whiteSpace=wrap;rounded=0;" parent="1" vertex="1">
          <mxGeometry x="1686.88" y="404" width="60" height="30" as="geometry" />
        </mxCell>
        <mxCell id="yjwkkPw8K8LZouZbog4r-290" value="&lt;b&gt;&lt;font style=&quot;font-size: 18px;&quot;&gt;M&lt;/font&gt;&lt;/b&gt;" style="text;html=1;strokeColor=none;fillColor=none;align=center;verticalAlign=middle;whiteSpace=wrap;rounded=0;" parent="1" vertex="1">
          <mxGeometry x="1804.38" y="399" width="60" height="30" as="geometry" />
        </mxCell>
        <mxCell id="yjwkkPw8K8LZouZbog4r-293" style="edgeStyle=orthogonalEdgeStyle;rounded=0;orthogonalLoop=1;jettySize=auto;html=1;exitX=0.5;exitY=0;exitDx=0;exitDy=0;entryX=0.5;entryY=1;entryDx=0;entryDy=0;" parent="1" source="yjwkkPw8K8LZouZbog4r-292" target="yjwkkPw8K8LZouZbog4r-3" edge="1">
          <mxGeometry relative="1" as="geometry" />
        </mxCell>
        <mxCell id="yjwkkPw8K8LZouZbog4r-292" value="Salary" style="ellipse;whiteSpace=wrap;html=1;align=center;" parent="1" vertex="1">
          <mxGeometry x="2335" y="724" width="50" height="30" as="geometry" />
        </mxCell>
        <mxCell id="yjwkkPw8K8LZouZbog4r-295" style="edgeStyle=orthogonalEdgeStyle;rounded=0;orthogonalLoop=1;jettySize=auto;html=1;exitX=1;exitY=0.5;exitDx=0;exitDy=0;entryX=0;entryY=0.5;entryDx=0;entryDy=0;" parent="1" source="yjwkkPw8K8LZouZbog4r-294" target="yjwkkPw8K8LZouZbog4r-1" edge="1">
          <mxGeometry relative="1" as="geometry" />
        </mxCell>
        <mxCell id="yjwkkPw8K8LZouZbog4r-294" value="Price" style="ellipse;whiteSpace=wrap;html=1;align=center;" parent="1" vertex="1">
          <mxGeometry x="976" y="959" width="100" height="40" as="geometry" />
        </mxCell>
        <mxCell id="yjwkkPw8K8LZouZbog4r-300" style="rounded=0;orthogonalLoop=1;jettySize=auto;html=1;exitX=1;exitY=0.5;exitDx=0;exitDy=0;entryX=0.011;entryY=0.7;entryDx=0;entryDy=0;entryPerimeter=0;shape=link;" parent="1" source="yjwkkPw8K8LZouZbog4r-201" target="yjwkkPw8K8LZouZbog4r-184" edge="1">
          <mxGeometry relative="1" as="geometry" />
        </mxCell>
        <mxCell id="yjwkkPw8K8LZouZbog4r-301" value="Has" style="shape=rhombus;double=1;perimeter=rhombusPerimeter;whiteSpace=wrap;html=1;align=center;" parent="1" vertex="1">
          <mxGeometry x="1913.58" y="629" width="120" height="60" as="geometry" />
        </mxCell>
        <mxCell id="yjwkkPw8K8LZouZbog4r-303" style="rounded=0;orthogonalLoop=1;jettySize=auto;html=1;exitX=1;exitY=0.5;exitDx=0;exitDy=0;entryX=0.014;entryY=0.639;entryDx=0;entryDy=0;entryPerimeter=0;endArrow=none;endFill=0;" parent="1" source="yjwkkPw8K8LZouZbog4r-301" target="yjwkkPw8K8LZouZbog4r-3" edge="1">
          <mxGeometry relative="1" as="geometry" />
        </mxCell>
        <mxCell id="yjwkkPw8K8LZouZbog4r-304" value="&lt;b&gt;&lt;font style=&quot;font-size: 18px;&quot;&gt;M&lt;/font&gt;&lt;/b&gt;" style="text;html=1;strokeColor=none;fillColor=none;align=center;verticalAlign=middle;whiteSpace=wrap;rounded=0;" parent="1" vertex="1">
          <mxGeometry x="1872.96" y="625.07" width="60" height="30" as="geometry" />
        </mxCell>
        <mxCell id="yjwkkPw8K8LZouZbog4r-305" value="&lt;b&gt;&lt;font style=&quot;font-size: 18px;&quot;&gt;M&lt;/font&gt;&lt;/b&gt;" style="text;html=1;strokeColor=none;fillColor=none;align=center;verticalAlign=middle;whiteSpace=wrap;rounded=0;" parent="1" vertex="1">
          <mxGeometry x="2030.54" y="627.32" width="60" height="30" as="geometry" />
        </mxCell>
        <mxCell id="yjwkkPw8K8LZouZbog4r-306" value="A_Date" style="ellipse;whiteSpace=wrap;html=1;" parent="1" vertex="1">
          <mxGeometry x="1616.62" y="499" width="50" height="30.5" as="geometry" />
        </mxCell>
        <mxCell id="yjwkkPw8K8LZouZbog4r-307" value="B_Date" style="ellipse;whiteSpace=wrap;html=1;" parent="1" vertex="1">
          <mxGeometry x="1932.96" y="514.5" width="50" height="30.5" as="geometry" />
        </mxCell>
        <mxCell id="yjwkkPw8K8LZouZbog4r-308" value="Period" style="ellipse;whiteSpace=wrap;html=1;align=center;dashed=1;" parent="1" vertex="1">
          <mxGeometry x="1811.0700000000002" y="542" width="60" height="25" as="geometry" />
        </mxCell>
        <mxCell id="yjwkkPw8K8LZouZbog4r-310" style="rounded=0;orthogonalLoop=1;jettySize=auto;html=1;exitX=0;exitY=0;exitDx=0;exitDy=0;entryX=0.877;entryY=0.748;entryDx=0;entryDy=0;entryPerimeter=0;" parent="1" source="yjwkkPw8K8LZouZbog4r-221" target="yjwkkPw8K8LZouZbog4r-69" edge="1">
          <mxGeometry relative="1" as="geometry" />
        </mxCell>
        <mxCell id="yjwkkPw8K8LZouZbog4r-318" style="edgeStyle=orthogonalEdgeStyle;rounded=0;orthogonalLoop=1;jettySize=auto;html=1;exitX=0.25;exitY=0;exitDx=0;exitDy=0;entryX=0.322;entryY=0.942;entryDx=0;entryDy=0;entryPerimeter=0;" parent="1" source="yjwkkPw8K8LZouZbog4r-184" target="yjwkkPw8K8LZouZbog4r-61" edge="1">
          <mxGeometry relative="1" as="geometry">
            <Array as="points">
              <mxPoint x="1698" y="612" />
            </Array>
          </mxGeometry>
        </mxCell>
        <mxCell id="863oaCRpfRgj1-0JgvNW-2" style="edgeStyle=orthogonalEdgeStyle;rounded=0;orthogonalLoop=1;jettySize=auto;html=1;entryX=0.895;entryY=0.388;entryDx=0;entryDy=0;entryPerimeter=0;" edge="1" parent="1" source="yjwkkPw8K8LZouZbog4r-117" target="yjwkkPw8K8LZouZbog4r-22">
          <mxGeometry relative="1" as="geometry">
            <Array as="points">
              <mxPoint x="1942" y="1080" />
              <mxPoint x="1783" y="1080" />
            </Array>
          </mxGeometry>
        </mxCell>
        <mxCell id="863oaCRpfRgj1-0JgvNW-3" value="Price" style="ellipse;whiteSpace=wrap;html=1;align=center;" vertex="1" parent="1">
          <mxGeometry x="1601.62" y="704" width="100" height="40" as="geometry" />
        </mxCell>
        <mxCell id="863oaCRpfRgj1-0JgvNW-4" style="edgeStyle=orthogonalEdgeStyle;rounded=0;orthogonalLoop=1;jettySize=auto;html=1;entryX=0.433;entryY=0.016;entryDx=0;entryDy=0;entryPerimeter=0;" edge="1" parent="1" source="863oaCRpfRgj1-0JgvNW-3" target="yjwkkPw8K8LZouZbog4r-143">
          <mxGeometry relative="1" as="geometry">
            <Array as="points">
              <mxPoint x="1753" y="710" />
            </Array>
          </mxGeometry>
        </mxCell>
        <mxCell id="863oaCRpfRgj1-0JgvNW-5" value="Price" style="ellipse;whiteSpace=wrap;html=1;align=center;" vertex="1" parent="1">
          <mxGeometry x="1646.8799999999999" y="1310" width="100" height="40" as="geometry" />
        </mxCell>
        <mxCell id="863oaCRpfRgj1-0JgvNW-6" style="edgeStyle=orthogonalEdgeStyle;rounded=0;orthogonalLoop=1;jettySize=auto;html=1;entryX=0.187;entryY=1.02;entryDx=0;entryDy=0;entryPerimeter=0;" edge="1" parent="1" source="863oaCRpfRgj1-0JgvNW-5" target="yjwkkPw8K8LZouZbog4r-4">
          <mxGeometry relative="1" as="geometry" />
        </mxCell>
      </root>
    </mxGraphModel>
  </diagram>
</mxfile>
